<svg xmlns="http://www.w3.org/2000/svg" width="28" height="27.989" viewBox="0 0 28 27.989"><defs><style>.a{fill:#fff;}</style></defs><g transform="translate(-2.25 -2.249)"><path class="a" d="M17.655,13.988a.3.3,0,0,0-.481-.044L11.431,21.58a.292.292,0,0,0,.2.481l10.067.875a.3.3,0,0,0,.281-.444Z" transform="translate(-1.014 -1.29)"/><path class="a" d="M25.556,18.551a.3.3,0,0,0-.481-.044l-1.55,1.568a.292.292,0,0,0-.031.337l1.587,3.093a.291.291,0,0,0,.231.144l2.806.244a.3.3,0,0,0,.281-.444Z" transform="translate(-2.36 -1.798)"/><path class="a" d="M26.4,15.408a1.478,1.478,0,1,0-1.481-1.756A1.489,1.489,0,0,0,26.4,15.408Z" transform="translate(-2.52 -1.136)"/><path class="a" d="M28.694,8.33l-4.112-.356L24.2,3.787a1.688,1.688,0,0,0-1.843-1.531L3.793,3.931A1.7,1.7,0,0,0,2.256,5.768L3.931,24.3a1.688,1.688,0,0,0,1.843,1.531l.981-.087-.094,1.044A1.69,1.69,0,0,0,8.2,28.613l18.577,1.618a1.7,1.7,0,0,0,1.837-1.537l1.625-18.534A1.7,1.7,0,0,0,28.694,8.33ZM5.724,19.04a.43.43,0,0,1-.462-.381L4.137,6.162a.421.421,0,0,1,.381-.456L21.965,4.137a.43.43,0,0,1,.462.381l.3,3.3-12.6-1.106A1.7,1.7,0,0,0,8.286,8.249L7.355,18.89Zm22.633-8.473-1.094,12.5a.425.425,0,0,1-.456.387l-1.162-.1L9.355,21.933a.425.425,0,0,1-.387-.456L9.2,18.734l.856-9.754a.425.425,0,0,1,.456-.387L22.889,9.673l1.856.162,3.224.281A.408.408,0,0,1,28.357,10.567Z"/></g></svg>